<?xml version="1.0" encoding="utf-8"?><svg xmlns="http://www.w3.org/2000/svg" xmlns:xlink="http://www.w3.org/1999/xlink"><symbol viewBox="0 0 344.96 344.96" id="check" xmlns="http://www.w3.org/2000/svg"><g data-name="Слой 2"><path d="M321.85 86.24l-40-23.11-23.1-40H212.5L172.48 0l-40 23.11H86.24l-23.11 40-40 23.1v46.21L0 172.48l23.11 40v46.21l40 23.11 23.11 40h46.21l40 23.1 40-23.11h46.21l23.11-40 40-23.11V212.5l23.11-40-23.11-40V86.24zM156.91 243.07a16.79 16.79 0 0 1-23.34 0l-50.45-50.44a16.19 16.19 0 0 1 0-22.89l13.35-13.35a16.19 16.19 0 0 1 22.89 0l25.87 25.87 80.34-80.35a16.19 16.19 0 0 1 22.89 0l13.35 13.35a16.19 16.19 0 0 1 0 22.89z" data-name="Capa 1"/></g></symbol><symbol viewBox="0 0 11 19" id="chevron-left" xmlns="http://www.w3.org/2000/svg"><path d="M.293 9.292l9-9 1.414 1.415L2.914 9.5l7.793 7.792-1.414 1.414-9-9L.5 9.5z"/></symbol><symbol viewBox="0 0 11 19" id="chevron-right" xmlns="http://www.w3.org/2000/svg"><path d="M.293 1.707L1.707.292l9 9-.207.208.207.207-9 9-1.414-1.415L8.086 9.5z"/></symbol><symbol viewBox="0 -15 512 511" id="fan" xmlns="http://www.w3.org/2000/svg"><path d="M256.063 452.465c-34.875 0-67.711-10.254-95.422-28.027l20.62-21.274c21.973 12.899 47.532 20.313 74.802 20.313v-29.989c-19.11 0-37.165-4.566-53.157-12.652l19.68-20.305c-33.977-13.394-58.086-46.562-58.086-85.238 0-4.727.36-9.375 1.059-13.922l-27.48 6.797c.878-14.984 4.538-29.43 10.917-43.016l-27.14-12.746c-9.278 19.754-13.977 40.907-13.977 62.887v.352l-99.27 24.57-2.582 7.898C-5.047 341.95-.727 379.906 17.875 412.262c18.602 32.347 49.23 55.18 84.04 62.636l8.124 1.739 29.29-30.207a206.973 206.973 0 0 0 116.733 36.027c14.286 0 28.563-1.473 42.434-4.36l-6.117-29.359a178.587 178.587 0 0 1-36.317 3.727zm0 0"/><path d="M317.707 275.293c0 34.027-27.582 61.61-61.61 61.61s-61.613-27.583-61.613-61.61 27.586-61.613 61.614-61.613 61.609 27.586 61.609 61.613zM174.293 117.895l8.25 28.77a148.062 148.062 0 0 0-36.996 29.917l22.351 19.984a117.67 117.67 0 0 1 23.211-19.992l7.805 27.219c15.684-12.574 35.566-20.102 57.18-20.102 21.62 0 41.504 7.528 57.187 20.102l44.563-155.48-5.559-6.168C328.477 15.684 293.41.5 256.094.5s-72.375 15.184-96.184 41.645l-5.558 6.167 11.566 40.383a207.424 207.424 0 0 0-33.809 20.602c-34.804 26.031-61.047 63.11-73.89 104.402l28.64 8.906c14.465-46.523 46.442-83.507 87.434-104.71zm0 0"/><path d="M506.078 308.793l-2.558-7.906-40.875-10.239c.37-5.078.582-10.195.582-15.351 0-59.238-25.454-115.766-69.817-155.082l-19.89 22.441c37.945 33.625 59.718 81.977 59.718 132.64 0 2.657-.082 5.306-.203 7.946l-28.808-7.219c.011-.238.02-.488.02-.726 0-34.348-12.024-67.824-33.845-94.266l-23.132 19.082c15.953 19.332 25.308 43.383 26.757 68.356l-27.347-6.86a92.541 92.541 0 0 1 1.02 13.688c0 38.762-24.223 71.992-58.317 85.324l112.226 116.406 8.125-1.718c34.828-7.356 65.528-30.11 84.211-62.407 18.692-32.297 23.11-70.242 12.133-104.109zm0 0"/></symbol><symbol viewBox="-22 0 134 134.06" id="fire" xmlns="http://www.w3.org/2000/svg"><path d="M23.348 134.059C8.445 84.953 39.934 67.023 39.934 67.023 37.73 93.227 52.62 113.641 52.62 113.641c5.477-1.653 15.93-9.375 15.93-9.375 0 9.375-5.516 29.78-5.516 29.78s19.309-14.929 25.387-39.726c6.07-24.797-11.563-49.691-11.563-49.691a66.494 66.494 0 0 1-16.507 48 9.514 9.514 0 0 0 1.445-2.227c2.09-4.18 5.445-15.043 3.48-40.199C62.512 14.891 30.516 0 30.516 0c2.757 21.516-5.512 26.473-24.883 67.313-19.371 40.832 17.715 66.746 17.715 66.746zm0 0"/></symbol><symbol viewBox="0 0 99.012 99.012" id="plug-silhouette" xmlns="http://www.w3.org/2000/svg"><path d="M25.08 15.648a2.465 2.465 0 0 0-3.573.085c-14.829 16.325-6.762 51.623-5.916 55.115L.723 85.717a2.469 2.469 0 0 0 0 3.492l8.958 8.957a2.47 2.47 0 0 0 3.491 0l14.865-14.864c7.237 1.859 16.289 2.968 24.28 2.968 9.599 0 22.739-1.543 30.836-8.886a2.469 2.469 0 0 0 .086-3.574L25.08 15.648zm21.477 14.697a2.461 2.461 0 0 0 1.746.723c.632 0 1.264-.241 1.746-.724l18.428-18.428A6.863 6.863 0 0 0 70.5 7.031a6.866 6.866 0 0 0-2.023-4.886A6.86 6.86 0 0 0 63.592.123a6.872 6.872 0 0 0-4.887 2.022L40.277 20.574a2.47 2.47 0 0 0 0 3.492l6.28 6.279zm50.433.316a6.862 6.862 0 0 0-4.885-2.024 6.86 6.86 0 0 0-4.886 2.023L68.79 49.089a2.466 2.466 0 0 0 0 3.492l6.28 6.278a2.46 2.46 0 0 0 1.746.724 2.46 2.46 0 0 0 1.746-.724l18.43-18.429c2.694-2.695 2.694-7.077-.002-9.769z"/></symbol><symbol viewBox="0 0 540.6 540.6" id="usb-symbol" xmlns="http://www.w3.org/2000/svg"><path d="M349.35 153v102h25.5v51h-76.5V102h51L272.85 0l-76.5 102h51v204h-76.5v-53.55c17.85-7.65 30.6-28.05 30.6-48.45 0-30.6-25.5-56.1-56.1-56.1s-56.1 25.5-56.1 56.1c0 20.4 12.75 40.8 30.6 48.45V306c0 28.05 22.95 51 51 51h76.5v79.05c-17.85 10.2-30.6 28.05-30.6 48.45 0 30.6 25.5 56.1 56.1 56.1s56.1-25.5 56.1-56.1c0-22.95-12.75-40.8-30.6-48.45V357h76.5c28.051 0 51-22.95 51-51v-51h25.5V153h-102z"/></symbol><symbol viewBox="0 0 90 90" id="water" xmlns="http://www.w3.org/2000/svg"><path d="M8.219 26.79c8.736-7.502 15.637-13.433 34.359-2.854 8.994 5.081 16.249 6.999 22.289 6.998 10.575 0 17.426-5.883 23.352-10.975 2.113-1.814 2.385-5.035.607-7.194s-4.932-2.438-7.045-.621c-8.735 7.505-15.635 13.434-34.363 2.853-24.739-13.975-36.326-4.02-45.637 3.977-2.112 1.815-2.385 5.036-.607 7.195a4.928 4.928 0 0 0 7.045.621zm73.562 10.888c-8.735 7.503-15.635 13.433-34.363 2.853-24.739-13.976-36.326-4.021-45.637 3.977-2.112 1.816-2.385 5.037-.607 7.193a4.928 4.928 0 0 0 7.045.622c8.736-7.503 15.637-13.433 34.359-2.855 8.994 5.081 16.249 7 22.289 7 10.575 0 17.426-5.884 23.352-10.975 2.113-1.816 2.385-5.037.607-7.194a4.925 4.925 0 0 0-7.045-.621zm0 25.531c-8.735 7.504-15.635 13.433-34.363 2.854-24.739-13.976-36.326-4.021-45.637 3.977-2.112 1.815-2.385 5.037-.607 7.196a4.93 4.93 0 0 0 7.045.62C16.955 70.351 23.855 64.424 42.578 75c8.994 5.083 16.249 7 22.289 7 10.575 0 17.426-5.884 23.352-10.974 2.113-1.815 2.385-5.038.607-7.196a4.93 4.93 0 0 0-7.045-.621z"/></symbol></svg>