<svg height="511pt" viewBox="0 -15 511.99979 511" width="511pt" xmlns="http://www.w3.org/2000/svg"><path d="m256.0625 452.464844c-34.875 0-67.710938-10.253906-95.421875-28.027344l20.621094-21.273438c21.972656 12.898438 47.53125 20.3125 74.800781 20.3125v-29.988281c-19.109375 0-37.164062-4.566406-53.15625-12.652343l19.679688-20.304688c-33.976563-13.394531-58.085938-46.5625-58.085938-85.238281 0-4.726563.359375-9.375 1.058594-13.921875l-27.480469 6.796875c.878906-14.984375 4.539063-29.429688 10.917969-43.015625l-27.140625-12.746094c-9.277344 19.753906-13.976563 40.90625-13.976563 62.886719v.351562l-99.269531 24.570313-2.582031 7.898437c-11.074219 33.835938-6.753906 71.792969 11.847656 104.148438 18.601562 32.347656 49.230469 55.179687 84.039062 62.636719l8.125 1.738281 29.289063-30.207031c34.226563 23.359374 74.832031 36.027343 116.734375 36.027343 14.285156 0 28.5625-1.472656 42.433594-4.359375l-6.117188-29.359375c-11.863281 2.46875-24.078125 3.726563-36.316406 3.726563zm0 0"/><path d="m317.707031 275.292969c0 34.027343-27.582031 61.609375-61.609375 61.609375s-61.613281-27.582032-61.613281-61.609375c0-34.027344 27.585937-61.613281 61.613281-61.613281s61.609375 27.585937 61.609375 61.613281zm0 0"/><path d="m174.292969 117.894531 8.25 28.769531c-13.738281 7.847657-26.261719 17.902344-36.996094 29.917969l22.351563 19.984375c6.894531-7.71875 14.710937-14.414062 23.210937-19.992187l7.804687 27.21875c15.683594-12.574219 35.566407-20.101563 57.179688-20.101563 21.621094 0 41.503906 7.527344 57.1875 20.101563l44.5625-155.480469-5.558594-6.167969c-23.808594-26.460937-58.875-41.644531-96.191406-41.644531s-72.375 15.183594-96.183594 41.644531l-5.558594 6.167969 11.566407 40.382812c-11.796875 5.71875-23.113281 12.597657-33.808594 20.601563-34.804687 26.03125-61.046875 63.109375-73.890625 104.402344l28.640625 8.90625c14.464844-46.523438 46.441406-83.507813 87.433594-104.710938zm0 0"/><path d="m506.078125 308.792969-2.558594-7.90625-40.875-10.238281c.371094-5.078126.582031-10.195313.582031-15.351563 0-59.238281-25.453124-115.765625-69.816406-155.082031l-19.890625 22.441406c37.945313 33.625 59.71875 81.976562 59.71875 132.640625 0 2.65625-.082031 5.304687-.203125 7.945313l-28.808594-7.21875c.011719-.238282.019532-.488282.019532-.726563 0-34.347656-12.023438-67.824219-33.84375-94.265625l-23.132813 19.082031c15.953125 19.332031 25.308594 43.382813 26.757813 68.355469l-27.347656-6.859375c.667968 4.46875 1.019531 9.039063 1.019531 13.6875 0 38.761719-24.222657 71.992187-58.316407 85.324219l112.226563 116.40625 8.125-1.71875c34.828125-7.355469 65.527344-30.109375 84.210937-62.40625 18.691407-32.296875 23.109376-70.242188 12.132813-104.109375zm0 0"/></svg>